<?xml version="1.0" encoding="utf-8"?>
<!-- Generator: Adobe Illustrator 15.1.0, SVG Export Plug-In . SVG Version: 6.00 Build 0)  -->
<!DOCTYPE svg PUBLIC "-//W3C//DTD SVG 1.1//EN" "http://www.w3.org/Graphics/SVG/1.1/DTD/svg11.dtd">
<svg version="1.1" id="Layer_1" xmlns="http://www.w3.org/2000/svg" xmlns:xlink="http://www.w3.org/1999/xlink" x="0px" y="0px"
	 width="500px" height="400px" viewBox="0 0 500 400" enable-background="new 0 0 500 400" xml:space="preserve">
<g>
	<g>
		<g>
			<g>
				<linearGradient id="SVGID_1_" gradientUnits="userSpaceOnUse" x1="250.8491" y1="15" x2="250.8491" y2="370.4292">
					<stop  offset="0.2747" style="stop-color:#F9AF00"/>
					<stop  offset="0.5129" style="stop-color:#F5A500"/>
					<stop  offset="0.9401" style="stop-color:#EC8B00"/>
					<stop  offset="1" style="stop-color:#EB8700"/>
				</linearGradient>
				<path fill="url(#SVGID_1_)" d="M411.65,370.429h-160H91.651c-15.134,0-27.724-6.833-34.542-18.742
					c-7.292-12.739-6.58-28.974,1.908-43.427l78.678-135.76l78.678-135.76C224.382,23.099,237.553,15,251.651,15
					c14.097,0,27.268,8.099,35.233,21.665l77.719,133.829l77.719,133.829c8.968,15.274,9.708,34.055,1.846,47.787
					C437.503,363.75,425.651,370.429,411.65,370.429L411.65,370.429z"/>
				<linearGradient id="SVGID_2_" gradientUnits="userSpaceOnUse" x1="250.8677" y1="15.8921" x2="250.8677" y2="369.9458">
					<stop  offset="0.2747" style="stop-color:#F9AF00"/>
					<stop  offset="0.5191" style="stop-color:#F5A500"/>
					<stop  offset="0.9576" style="stop-color:#EC8B00"/>
					<stop  offset="1" style="stop-color:#EB8800"/>
				</linearGradient>
				<path fill="url(#SVGID_2_)" d="M250.932,15.944c13.935-0.778,27.253,7.239,35.346,20.726c0.069,0.065,4.503,7.668,4.559,7.763
					l73.349,126.305l74.997,129.142c0.033,0.055,2.781,4.797,2.805,4.854c8.911,15.362,9.147,34.047,1.132,47.482
					c-6.65,11.147-18.933,17.729-32.482,17.729l0,0H251.65H92.708c-14.646,0-27.673-6.738-34.485-18.138
					c-7.452-12.47-7.289-28.554,1.109-43.083c0.025-0.073,3.529-6.133,3.572-6.206l75.209-129.775L216.242,37.93
					C223.993,24.729,237.31,16.704,250.932,15.944z"/>
				<linearGradient id="SVGID_3_" gradientUnits="userSpaceOnUse" x1="250.8843" y1="16.6943" x2="250.8843" y2="369.4614">
					<stop  offset="0.2747" style="stop-color:#F9AF00"/>
					<stop  offset="0.5258" style="stop-color:#F5A500"/>
					<stop  offset="0.9762" style="stop-color:#EC8B00"/>
					<stop  offset="1" style="stop-color:#EB8A00"/>
				</linearGradient>
				<path fill="url(#SVGID_3_)" d="M250.213,16.888c13.747-1.555,27.239,6.379,35.458,19.787c0.14,0.131,4.491,7.563,4.603,7.752
					l73.494,126.555l75.088,129.297c0.064,0.109,2.75,4.752,2.796,4.867c8.856,15.449,8.595,34.026,0.419,47.177
					c-6.626,10.657-19.35,17.138-32.447,17.138l0,0H251.65H93.765c-14.157,0-27.634-6.641-34.428-17.533
					c-7.617-12.213-7.998-28.133,0.311-42.737c0.05-0.146,3.471-6.081,3.557-6.228l75.326-129.976L216.112,39.12
					C223.604,26.359,237.107,18.37,250.213,16.888z"/>
				<linearGradient id="SVGID_4_" gradientUnits="userSpaceOnUse" x1="250.8979" y1="17.4248" x2="250.8979" y2="368.978">
					<stop  offset="0.2747" style="stop-color:#F9AF00"/>
					<stop  offset="0.5329" style="stop-color:#F5A500"/>
					<stop  offset="0.9961" style="stop-color:#EC8C00"/>
					<stop  offset="1" style="stop-color:#EC8B00"/>
				</linearGradient>
				<path fill="url(#SVGID_4_)" d="M249.493,17.832c13.536-2.328,27.225,5.519,35.571,18.848c0.21,0.196,4.479,7.458,4.646,7.742
					l73.639,126.804l75.178,129.452c0.098,0.166,2.72,4.708,2.789,4.881c8.8,15.537,8.051,33.992-0.295,46.872
					c-6.588,10.168-19.766,16.547-32.412,16.547l0,0H251.65H94.822c-13.669,0-27.608-6.541-34.371-16.929
					c-7.792-11.971-8.708-27.714-0.488-42.394c0.075-0.22,3.415-6.028,3.543-6.247l75.442-130.177l77.032-132.92
					C223.215,27.99,236.943,19.99,249.493,17.832z"/>
				<linearGradient id="SVGID_5_" gradientUnits="userSpaceOnUse" x1="250.9087" y1="18.0962" x2="250.9087" y2="368.4937">
					<stop  offset="0.2747" style="stop-color:#F8B000"/>
					<stop  offset="0.5404" style="stop-color:#F5A600"/>
					<stop  offset="1" style="stop-color:#EC8D00"/>
				</linearGradient>
				<path fill="url(#SVGID_5_)" d="M248.774,18.776c13.298-3.098,27.21,4.658,35.683,17.909c0.28,0.262,4.469,7.353,4.69,7.731
					l73.785,127.054L438.2,301.077c0.129,0.221,2.688,4.664,2.78,4.893c8.744,15.625,7.516,33.944-1.008,46.568
					c-6.537,9.683-20.182,15.955-32.376,15.955l0,0H251.65H95.879c-13.181,0-27.597-6.437-34.313-16.324
					c-7.975-11.74-9.417-27.293-1.287-42.049c0.1-0.293,3.357-5.976,3.529-6.268l75.559-130.377l76.484-131.974
					C222.826,29.621,236.815,21.562,248.774,18.776z"/>
				<linearGradient id="SVGID_6_" gradientUnits="userSpaceOnUse" x1="250.9185" y1="18.7188" x2="250.9184" y2="368.0103">
					<stop  offset="0.2747" style="stop-color:#F8B000"/>
					<stop  offset="0.5485" style="stop-color:#F5A600"/>
					<stop  offset="1" style="stop-color:#EC8F00"/>
				</linearGradient>
				<path fill="url(#SVGID_6_)" d="M248.055,19.72c13.036-3.861,27.196,3.798,35.796,16.97c0.35,0.327,4.457,7.247,4.734,7.721
					l73.93,127.304l75.357,129.763c0.162,0.275,2.658,4.619,2.773,4.905c8.688,15.713,6.988,33.882-1.722,46.263
					c-6.474,9.202-20.599,15.365-32.341,15.365l0,0H251.65H96.936c-12.693,0-27.601-6.329-34.256-15.72
					c-8.168-11.525-10.126-26.873-2.085-41.704c0.125-0.367,3.3-5.924,3.515-6.289l75.675-130.578L215.72,42.691
					C222.437,31.251,236.717,23.078,248.055,19.72z"/>
				<linearGradient id="SVGID_7_" gradientUnits="userSpaceOnUse" x1="250.9253" y1="19.3008" x2="250.9253" y2="367.5259">
					<stop  offset="0.2747" style="stop-color:#F8B000"/>
					<stop  offset="0.5572" style="stop-color:#F5A600"/>
					<stop  offset="1" style="stop-color:#ED9000"/>
				</linearGradient>
				<path fill="url(#SVGID_7_)" d="M247.335,20.664c12.748-4.617,27.183,2.938,35.908,16.031c0.42,0.393,4.445,7.142,4.779,7.71
					l74.074,127.554l75.448,129.918c0.193,0.33,2.627,4.574,2.765,4.918c8.633,15.801,6.473,33.807-2.436,45.958
					c-6.396,8.725-21.014,14.773-32.305,14.773l0,0H251.65H97.993c-12.205,0-27.62-6.216-34.198-15.114
					c-8.371-11.324-10.835-26.453-2.884-41.36c0.15-0.439,3.244-5.871,3.501-6.31l75.791-130.779l75.387-130.08
					C222.048,32.882,236.646,24.535,247.335,20.664z"/>
				<linearGradient id="SVGID_8_" gradientUnits="userSpaceOnUse" x1="250.9302" y1="19.8496" x2="250.9302" y2="367.0425">
					<stop  offset="0.2747" style="stop-color:#F8B000"/>
					<stop  offset="0.5664" style="stop-color:#F4A600"/>
					<stop  offset="1" style="stop-color:#ED9200"/>
				</linearGradient>
				<path fill="url(#SVGID_8_)" d="M246.616,21.607c12.434-5.363,27.168,2.078,36.021,15.092c0.489,0.458,4.434,7.037,4.822,7.699
					l74.22,127.803l75.538,130.073c0.227,0.386,2.597,4.53,2.758,4.932c8.576,15.888,5.966,33.717-3.149,45.653
					c-6.303,8.253-21.43,14.183-32.27,14.183l0,0H251.65H99.05c-11.717,0-27.655-6.096-34.141-14.511
					c-8.583-11.136-11.544-26.033-3.683-41.016c0.174-0.513,3.187-5.818,3.487-6.329l75.907-130.98l74.838-129.134
					C221.659,34.512,236.594,25.93,246.616,21.607z"/>
				<linearGradient id="SVGID_9_" gradientUnits="userSpaceOnUse" x1="250.9341" y1="20.3696" x2="250.9341" y2="366.5581">
					<stop  offset="0.2747" style="stop-color:#F8B100"/>
					<stop  offset="0.5765" style="stop-color:#F4A700"/>
					<stop  offset="1" style="stop-color:#ED9300"/>
				</linearGradient>
				<path fill="url(#SVGID_9_)" d="M245.896,22.551c12.096-6.099,27.153,1.218,36.133,14.153c0.561,0.523,4.423,6.931,4.867,7.688
					l74.364,128.053l75.628,130.228c0.259,0.441,2.566,4.485,2.751,4.944c8.521,15.976,5.47,33.612-3.863,45.348
					c-6.194,7.789-21.847,13.592-32.234,13.592l0,0H251.65H100.106c-11.228,0-27.707-5.968-34.083-13.905
					c-8.807-10.962-12.254-25.613-4.481-40.671c0.2-0.587,3.129-5.766,3.473-6.351l76.024-131.181l74.29-128.187
					C221.27,36.143,236.557,27.261,245.896,22.551z"/>
				<linearGradient id="SVGID_10_" gradientUnits="userSpaceOnUse" x1="250.6953" y1="21.7822" x2="250.6953" y2="366.0747">
					<stop  offset="0.2747" style="stop-color:#F8B100"/>
					<stop  offset="0.5873" style="stop-color:#F4A700"/>
					<stop  offset="1" style="stop-color:#EE9500"/>
				</linearGradient>
				<path fill="url(#SVGID_10_)" d="M245.177,23.495c12.746-4.668,27.139,0.358,36.246,13.214c0.63,0.589,4.41,6.826,4.911,7.678
					l74.509,128.303l75.719,130.383c0.291,0.496,2.535,4.44,2.742,4.957c8.465,16.063,4.985,33.494-4.576,45.043
					c-6.07,7.332-22.263,13.001-32.199,13.001l0,0H251.65H101.164c-10.74,0-29.188-4.85-34.026-13.301
					c-10.801-9.041-12.963-25.193-5.28-40.327c0.225-0.659,3.073-5.713,3.459-6.371l76.14-131.381l73.741-127.24
					C220.881,37.773,235.172,23.495,245.177,23.495z"/>
				<linearGradient id="SVGID_11_" gradientUnits="userSpaceOnUse" x1="250.9702" y1="22.3618" x2="250.9702" y2="365.5903">
					<stop  offset="0.2747" style="stop-color:#F8B100"/>
					<stop  offset="0.599" style="stop-color:#F4A700"/>
					<stop  offset="1" style="stop-color:#EE9600"/>
				</linearGradient>
				<path fill="url(#SVGID_11_)" d="M244.458,24.439c12.595-5.188,27.125-0.502,36.358,12.275c0.7,0.654,4.399,6.721,4.955,7.667
					l74.654,128.553l75.809,130.539c0.323,0.551,2.505,4.396,2.735,4.969c8.408,16.151,6.495,35.437-5.29,44.738
					c-4.515,7.886-22.679,12.41-32.163,12.41l0,0H251.65H102.22c-10.252,0-29.35-4.629-33.969-12.696
					c-11.191-8.63-13.672-24.772-6.079-39.982c0.25-0.732,3.016-5.66,3.444-6.392l76.257-131.582l73.192-126.294
					C220.492,39.404,234.907,24.439,244.458,24.439z"/>
				<linearGradient id="SVGID_12_" gradientUnits="userSpaceOnUse" x1="250.9741" y1="22.9131" x2="250.9741" y2="365.1069">
					<stop  offset="0.2747" style="stop-color:#F8B100"/>
					<stop  offset="0.6118" style="stop-color:#F4A800"/>
					<stop  offset="1" style="stop-color:#EE9800"/>
				</linearGradient>
				<path fill="url(#SVGID_12_)" d="M243.738,25.383c12.445-5.707,27.111-1.362,36.471,11.336c0.77,0.72,4.388,6.615,4.999,7.657
					l74.799,128.802l75.899,130.694c0.355,0.605,2.474,4.352,2.727,4.981c8.354,16.239,6.175,35.574-6.003,44.434
					c-4.3,7.51-23.096,11.819-32.128,11.819l0,0H251.65H103.277c-9.764,0-29.513-4.409-33.912-12.092
					c-11.581-8.219-14.381-24.353-6.877-39.638c0.274-0.807,2.958-5.608,3.431-6.413l76.373-131.782l72.644-125.347
					C220.103,41.034,234.643,25.383,243.738,25.383z"/>
				<linearGradient id="SVGID_13_" gradientUnits="userSpaceOnUse" x1="250.9766" y1="23.4385" x2="250.9765" y2="364.6226">
					<stop  offset="0.2747" style="stop-color:#F8B200"/>
					<stop  offset="0.6258" style="stop-color:#F4A800"/>
					<stop  offset="1" style="stop-color:#EF9900"/>
				</linearGradient>
				<path fill="url(#SVGID_13_)" d="M243.019,26.327c12.294-6.225,27.097-2.222,36.583,10.397c0.84,0.785,4.377,6.51,5.043,7.646
					l74.945,129.052l75.988,130.849c0.389,0.661,2.443,4.308,2.72,4.995c8.297,16.326,5.853,35.712-6.717,44.129
					c-4.085,7.135-23.512,11.228-32.093,11.228l0,0H251.65H104.334c-9.275,0-29.675-4.188-33.854-11.487
					c-11.971-7.808-15.091-23.933-7.676-39.293c0.299-0.88,2.901-5.556,3.417-6.433l76.489-131.983l72.095-124.401
					C219.714,42.665,234.378,26.327,243.019,26.327z"/>
				<linearGradient id="SVGID_14_" gradientUnits="userSpaceOnUse" x1="250.978" y1="23.939" x2="250.978" y2="364.1392">
					<stop  offset="0.2747" style="stop-color:#F7B200"/>
					<stop  offset="0.6407" style="stop-color:#F4A800"/>
					<stop  offset="1" style="stop-color:#EF9B00"/>
				</linearGradient>
				<path fill="url(#SVGID_14_)" d="M242.3,27.271c12.145-6.744,27.082-3.082,36.695,9.458c0.91,0.851,4.364,6.405,5.087,7.635
					l75.09,129.302L435.25,304.67c0.421,0.717,2.413,4.263,2.713,5.008c8.24,16.414,5.531,35.85-7.431,43.823
					c-3.87,6.76-23.928,10.638-32.058,10.638l0,0H251.65H105.391c-8.788,0-29.838-3.968-33.797-10.883
					c-12.361-7.397-15.8-23.513-8.475-38.949c0.324-0.952,2.845-5.503,3.402-6.453l76.606-132.184l71.546-123.454
					C219.325,44.295,234.114,27.271,242.3,27.271z"/>
				<linearGradient id="SVGID_15_" gradientUnits="userSpaceOnUse" x1="250.9785" y1="24.4165" x2="250.9785" y2="363.6548">
					<stop  offset="0.2747" style="stop-color:#F7B200"/>
					<stop  offset="0.6577" style="stop-color:#F4A800"/>
					<stop  offset="1" style="stop-color:#F09C00"/>
				</linearGradient>
				<path fill="url(#SVGID_15_)" d="M241.58,28.215c11.995-7.263,27.068-3.942,36.808,8.519c0.98,0.916,4.354,6.3,5.132,7.625
					l75.234,129.551l76.169,131.159c0.453,0.771,2.382,4.218,2.704,5.021c8.186,16.502,5.211,35.988-8.144,43.519
					c-3.655,6.384-24.344,10.046-32.022,10.046l0,0H251.65H106.448c-8.299,0-30-3.747-33.739-10.277
					c-12.751-6.986-16.509-23.093-9.273-38.604c0.349-1.026,2.788-5.451,3.389-6.475l76.722-132.385l70.998-122.507
					C218.936,45.926,233.849,28.215,241.58,28.215z"/>
				<linearGradient id="SVGID_16_" gradientUnits="userSpaceOnUse" x1="250.978" y1="24.8721" x2="250.978" y2="363.1714">
					<stop  offset="0.2747" style="stop-color:#F7B200"/>
					<stop  offset="0.6766" style="stop-color:#F4A900"/>
					<stop  offset="1" style="stop-color:#F09E00"/>
				</linearGradient>
				<path fill="url(#SVGID_16_)" d="M240.861,29.159c11.844-7.781,27.054-4.802,36.92,7.58c1.05,0.981,4.342,6.194,5.175,7.614
					l75.38,129.801l76.259,131.314c0.485,0.826,2.352,4.173,2.697,5.033c8.129,16.589,4.889,36.126-8.857,43.214
					c-3.44,6.008-24.761,9.455-31.987,9.455l0,0H251.65H107.505c-7.811,0-30.163-3.527-33.683-9.674
					c-13.14-6.575-17.218-22.672-10.071-38.26c0.374-1.1,2.73-5.398,3.374-6.495l76.839-132.585l70.449-121.561
					C218.547,47.556,233.584,29.159,240.861,29.159z"/>
				<linearGradient id="SVGID_17_" gradientUnits="userSpaceOnUse" x1="250.9761" y1="25.3071" x2="250.9761" y2="362.687">
					<stop  offset="0.2747" style="stop-color:#F7B300"/>
					<stop  offset="0.6977" style="stop-color:#F4A900"/>
					<stop  offset="1" style="stop-color:#F09F00"/>
				</linearGradient>
				<path fill="url(#SVGID_17_)" d="M240.142,30.103c11.694-8.3,27.04-5.663,37.032,6.641c1.12,1.047,4.33,6.089,5.22,7.604
					l75.524,130.051l76.35,131.469c0.518,0.882,2.32,4.13,2.688,5.046c8.073,16.678,4.568,36.265-9.571,42.909
					c-3.225,5.633-25.176,8.864-31.95,8.864l0,0H251.65H108.562c-7.323,0-30.325-3.306-33.625-9.068
					c-13.53-6.164-17.927-22.253-10.87-37.916c0.399-1.172,2.674-5.346,3.36-6.515l76.955-132.787l69.901-120.614
					C218.158,49.187,233.32,30.103,240.142,30.103z"/>
				<linearGradient id="SVGID_18_" gradientUnits="userSpaceOnUse" x1="250.9741" y1="25.7227" x2="250.9741" y2="362.2036">
					<stop  offset="0.2747" style="stop-color:#F7B300"/>
					<stop  offset="0.7215" style="stop-color:#F3A900"/>
					<stop  offset="1" style="stop-color:#F1A100"/>
				</linearGradient>
				<path fill="url(#SVGID_18_)" d="M239.422,31.047c11.544-8.819,27.026-6.522,37.145,5.702c1.189,1.113,4.318,5.984,5.263,7.593
					l75.67,130.301l76.439,131.625c0.55,0.937,2.29,4.085,2.682,5.059c8.017,16.765,4.246,36.402-10.285,42.604
					c-3.01,5.257-25.592,8.273-31.915,8.273l0,0H251.65H109.619c-6.835,0-30.488-3.086-33.568-8.465
					c-13.92-5.753-18.637-21.832-11.668-37.571c0.424-1.245,2.617-5.293,3.346-6.535l77.071-132.987l69.353-119.667
					C217.769,50.817,233.055,31.047,239.422,31.047z"/>
				<linearGradient id="SVGID_19_" gradientUnits="userSpaceOnUse" x1="250.9702" y1="26.1196" x2="250.9702" y2="361.7192">
					<stop  offset="0.2747" style="stop-color:#F7B300"/>
					<stop  offset="0.7486" style="stop-color:#F3A900"/>
					<stop  offset="1" style="stop-color:#F1A200"/>
				</linearGradient>
				<path fill="url(#SVGID_19_)" d="M238.703,31.991c11.394-9.338,27.012-7.382,37.257,4.763c1.26,1.178,4.308,5.879,5.308,7.583
					l75.814,130.55l76.53,131.78c0.582,0.991,2.259,4.04,2.673,5.071c7.962,16.853,3.926,36.541-10.998,42.3
					c-2.795,4.881-26.009,7.682-31.88,7.682l0,0H251.65H110.675c-6.346,0-30.65-2.865-33.51-7.859
					c-14.31-5.342-19.346-21.412-12.467-37.227c0.449-1.319,2.56-5.241,3.332-6.557l77.188-133.188l68.804-118.721
					C217.38,52.448,232.791,31.991,238.703,31.991z"/>
				<linearGradient id="SVGID_20_" gradientUnits="userSpaceOnUse" x1="250.9663" y1="26.4995" x2="250.9663" y2="361.2358">
					<stop  offset="0.2747" style="stop-color:#F7B300"/>
					<stop  offset="0.7797" style="stop-color:#F3AA00"/>
					<stop  offset="1" style="stop-color:#F1A400"/>
				</linearGradient>
				<path fill="url(#SVGID_20_)" d="M237.983,32.935c11.244-9.856,26.997-8.242,37.37,3.824c1.33,1.244,4.295,5.773,5.352,7.572
					l75.959,130.8l76.62,131.935c0.614,1.047,2.229,3.995,2.666,5.084c7.905,16.94,3.604,36.679-11.712,41.994
					c-2.58,4.506-26.425,7.092-31.845,7.092l0,0H251.65H111.732c-5.858,0-30.813-2.646-33.453-7.255
					c-14.7-4.932-20.055-20.992-13.266-36.883c0.474-1.392,2.503-5.188,3.318-6.577l77.304-133.388l68.255-117.774
					C216.991,54.078,232.526,32.935,237.983,32.935z"/>
				<linearGradient id="SVGID_21_" gradientUnits="userSpaceOnUse" x1="250.9619" y1="26.8623" x2="250.9619" y2="360.7515">
					<stop  offset="0.2747" style="stop-color:#F7B300"/>
					<stop  offset="0.8158" style="stop-color:#F3AA00"/>
					<stop  offset="1" style="stop-color:#F2A500"/>
				</linearGradient>
				<path fill="url(#SVGID_21_)" d="M237.264,33.878c11.094-10.375,26.983-9.103,37.482,2.885c1.4,1.309,4.284,5.668,5.396,7.561
					l76.105,131.05l76.709,132.09c0.647,1.103,2.198,3.951,2.659,5.098c7.849,17.027,3.282,36.816-12.426,41.689
					c-2.365,4.131-26.841,6.5-31.81,6.5l0,0H251.65H112.789c-5.37,0-30.976-2.424-33.396-6.65
					c-15.09-4.521-20.765-20.572-14.064-36.538c0.499-1.465,2.446-5.136,3.304-6.597l77.42-133.589L213.76,60.549
					C216.602,55.708,232.262,33.878,237.264,33.878z"/>
				<linearGradient id="SVGID_22_" gradientUnits="userSpaceOnUse" x1="250.9565" y1="27.2104" x2="250.9565" y2="360.2681">
					<stop  offset="0.2747" style="stop-color:#F7B400"/>
					<stop  offset="0.8584" style="stop-color:#F3AA00"/>
					<stop  offset="1" style="stop-color:#F2A700"/>
				</linearGradient>
				<path fill="url(#SVGID_22_)" d="M236.545,34.822c10.943-10.894,26.969-9.962,37.595,1.946c1.47,1.375,4.272,5.563,5.439,7.551
					l76.25,131.299l76.8,132.245c0.68,1.157,2.167,3.906,2.65,5.11c7.794,17.115,2.962,36.954-13.139,41.385
					c-2.15,3.755-27.258,5.909-31.774,5.909l0,0H251.65H113.846c-4.882,0-31.139-2.204-33.338-6.046
					c-15.48-4.109-21.474-20.152-14.863-36.193c0.523-1.539,2.389-5.084,3.29-6.618l77.537-133.79l67.158-115.881
					C216.213,57.339,231.997,34.822,236.545,34.822z"/>
				<linearGradient id="SVGID_23_" gradientUnits="userSpaceOnUse" x1="250.9507" y1="27.5435" x2="250.9507" y2="359.7837">
					<stop  offset="0.2747" style="stop-color:#F7B400"/>
					<stop  offset="0.9093" style="stop-color:#F3AA00"/>
					<stop  offset="1" style="stop-color:#F2A900"/>
				</linearGradient>
				<path fill="url(#SVGID_23_)" d="M235.825,35.767c10.793-11.413,26.955-10.823,37.707,1.006c1.54,1.44,4.262,5.458,5.483,7.54
					l76.396,131.549l76.89,132.4c0.712,1.212,2.137,3.862,2.644,5.122c7.737,17.203,2.64,37.094-13.853,41.08
					c-1.936,3.38-27.674,5.318-31.738,5.318l0,0H251.65H114.903c-4.394,0-31.301-1.983-33.281-5.441
					c-15.87-3.698-22.183-19.731-15.662-35.849c0.548-1.612,2.332-5.031,3.275-6.639l77.653-133.99L213.499,62.93
					C215.824,58.97,231.732,35.767,235.825,35.767z"/>
				<linearGradient id="SVGID_24_" gradientUnits="userSpaceOnUse" x1="250.9438" y1="27.8633" x2="250.9438" y2="359.3003">
					<stop  offset="0.2747" style="stop-color:#F6B400"/>
					<stop  offset="0.9715" style="stop-color:#F3AB00"/>
					<stop  offset="1" style="stop-color:#F3AA00"/>
				</linearGradient>
				<path fill="url(#SVGID_24_)" d="M235.106,36.71c10.643-11.932,26.941-11.683,37.82,0.067c1.609,1.505,4.249,5.353,5.527,7.529
					l76.54,131.799l76.98,132.556c0.744,1.267,2.105,3.817,2.635,5.135c7.682,17.291,2.319,37.231-14.565,40.775
					c-1.721,3.004-28.09,4.728-31.703,4.728l0,0H251.65H115.96c-3.906,0-31.464-1.764-33.224-4.837
					c-16.26-3.287-22.892-19.312-16.46-35.505c0.573-1.685,2.275-4.979,3.262-6.659l77.77-134.191L213.368,64.12
					C215.435,60.6,231.468,36.71,235.106,36.71z"/>
				<linearGradient id="SVGID_25_" gradientUnits="userSpaceOnUse" x1="250.937" y1="28.1694" x2="250.937" y2="358.8159">
					<stop  offset="0.2747" style="stop-color:#F6B400"/>
					<stop  offset="1" style="stop-color:#F3AC00"/>
				</linearGradient>
				<path fill="url(#SVGID_25_)" d="M234.387,37.654c10.493-12.45,26.926-12.542,37.932-0.871c1.681,1.57,4.238,5.247,5.572,7.519
					l76.685,132.049l77.07,132.711c0.776,1.322,2.075,3.772,2.628,5.147c7.626,17.379,1.998,37.369-15.279,40.47
					c-1.505,2.629-28.507,4.137-31.668,4.137l0,0H251.65H117.017c-3.417,0-31.626-1.543-33.166-4.231
					c-16.649-2.877-23.602-18.892-17.259-35.16c0.599-1.759,2.218-4.926,3.248-6.681l77.886-134.392l65.512-113.041
					C215.046,62.23,231.203,37.654,234.387,37.654z"/>
				<linearGradient id="SVGID_26_" gradientUnits="userSpaceOnUse" x1="250.9292" y1="28.4634" x2="250.9292" y2="358.3325">
					<stop  offset="0.2747" style="stop-color:#F6B500"/>
					<stop  offset="1" style="stop-color:#F3AD00"/>
				</linearGradient>
				<path fill="url(#SVGID_26_)" d="M233.667,38.598c10.343-12.969,26.912-13.403,38.044-1.81c1.75,1.636,4.227,5.142,5.615,7.508
					l76.83,132.298l77.16,132.866c0.81,1.378,2.045,3.729,2.621,5.161c7.569,17.466,1.676,37.507-15.993,40.165
					c-1.29,2.253-28.923,3.546-31.633,3.546l0,0H251.65H118.074c-2.929,0-31.789-1.322-33.109-3.628
					c-17.04-2.466-24.311-18.472-18.058-34.815c0.623-1.832,2.161-4.873,3.233-6.7l78.002-134.593l64.963-112.095
					C214.657,63.861,230.938,38.598,233.667,38.598z"/>
				<linearGradient id="SVGID_27_" gradientUnits="userSpaceOnUse" x1="250.9209" y1="28.7451" x2="250.9209" y2="357.8481">
					<stop  offset="0.2747" style="stop-color:#F6B500"/>
					<stop  offset="1" style="stop-color:#F4AF00"/>
				</linearGradient>
				<path fill="url(#SVGID_27_)" d="M232.948,39.542c10.193-13.488,26.898-14.263,38.157-2.749c1.82,1.702,4.215,5.037,5.66,7.497
					l76.975,132.548l77.251,133.021c0.841,1.433,2.014,3.684,2.612,5.174c7.514,17.554,1.355,37.646-16.707,39.86
					c-1.074,1.877-29.338,2.954-31.597,2.954l0,0H251.65H119.13c-2.441,0-31.951-1.102-33.051-3.022
					c-17.429-2.055-25.02-18.052-18.856-34.472c0.648-1.904,2.104-4.82,3.219-6.721l78.119-134.793l64.416-111.147
					C214.268,65.492,230.674,39.542,232.948,39.542z"/>
				<linearGradient id="SVGID_28_" gradientUnits="userSpaceOnUse" x1="250.9121" y1="29.0166" x2="250.9121" y2="357.3647">
					<stop  offset="0.2747" style="stop-color:#F6B500"/>
					<stop  offset="1" style="stop-color:#F4B000"/>
				</linearGradient>
				<path fill="url(#SVGID_28_)" d="M232.229,40.486c10.042-14.006,26.884-15.123,38.27-3.688c1.89,1.767,4.203,4.931,5.704,7.487
					l77.119,132.798l77.341,133.176c0.874,1.487,1.983,3.639,2.605,5.187c7.458,17.642,1.034,37.783-17.421,39.555
					c-0.859,1.502-29.755,2.364-31.562,2.364l0,0H251.65H120.188c-1.953,0-32.114-0.882-32.994-2.418
					c-17.819-1.645-25.729-17.632-19.655-34.127c0.673-1.979,2.047-4.769,3.206-6.742l78.235-134.994l63.867-110.201
					C213.879,67.122,230.409,40.486,232.229,40.486z"/>
				<linearGradient id="SVGID_29_" gradientUnits="userSpaceOnUse" x1="250.9028" y1="29.2769" x2="250.9028" y2="356.8804">
					<stop  offset="0.2747" style="stop-color:#F6B500"/>
					<stop  offset="1" style="stop-color:#F4B200"/>
				</linearGradient>
				<path fill="url(#SVGID_29_)" d="M231.509,41.43c9.892-14.525,26.87-15.983,38.381-4.627c1.96,1.833,4.192,4.826,5.748,7.476
					l77.266,133.048l77.431,133.332c0.905,1.542,1.952,3.595,2.597,5.198c7.402,17.729,0.713,37.922-18.134,39.251
					c-0.645,1.127-30.171,1.772-31.525,1.772l0,0H251.65H121.244c-1.464,0-32.276-0.661-32.937-1.813
					c-18.209-1.232-26.438-17.211-20.454-33.782c0.698-2.052,1.99-4.716,3.191-6.763l78.352-135.194l63.318-109.254
					C213.49,68.752,230.145,41.43,231.509,41.43z"/>
				<linearGradient id="SVGID_30_" gradientUnits="userSpaceOnUse" x1="250.8936" y1="29.5269" x2="250.8935" y2="356.397">
					<stop  offset="0.2747" style="stop-color:#F6B600"/>
					<stop  offset="1" style="stop-color:#F5B300"/>
				</linearGradient>
				<path fill="url(#SVGID_30_)" d="M230.79,42.374c9.742-15.044,26.854-16.843,38.494-5.566c2.03,1.898,4.181,4.721,5.792,7.465
					l77.41,133.297l77.521,133.486c0.938,1.599,1.922,3.551,2.59,5.212c7.346,17.817,0.392,38.06-18.848,38.946
					c-0.43,0.751-30.587,1.182-31.49,1.182l0,0H251.65H122.301c-0.977,0-32.439-0.44-32.879-1.209
					c-18.599-0.822-27.148-16.792-21.252-33.438c0.723-2.125,1.933-4.663,3.177-6.782l78.468-135.396l62.77-108.308
					C213.101,70.383,229.88,42.374,230.79,42.374z"/>
				<linearGradient id="SVGID_31_" gradientUnits="userSpaceOnUse" x1="250.8833" y1="29.7681" x2="250.8833" y2="355.9126">
					<stop  offset="0.2747" style="stop-color:#F6B600"/>
					<stop  offset="1" style="stop-color:#F5B500"/>
				</linearGradient>
				<path fill="url(#SVGID_31_)" d="M230.07,43.318c9.592-15.563,26.841-17.703,38.606-6.505c2.101,1.963,4.169,4.616,5.836,7.455
					l77.556,133.547l77.611,133.642c0.97,1.653,1.891,3.506,2.581,5.225c7.291,17.904,0.07,38.198-19.561,38.641
					c-0.215,0.376-31.004,0.591-31.455,0.591l0,0H251.65H123.358c-0.488,0-32.602-0.22-32.822-0.604
					c-18.989-0.41-27.857-16.371-22.051-33.093c0.748-2.198,1.875-4.611,3.163-6.804l78.584-135.596l62.221-107.361
					C212.712,72.014,229.616,43.318,230.07,43.318z"/>
				<path fill="#F6B600" d="M91.65,355.429c-22,0-30.865-20.558-19.701-39.573l78.701-135.797l78.701-135.797
					c11.165-19.016,33.435-19.016,44.599,0l77.7,133.797l77.701,133.797c11.165,19.016,4.3,43.573-17.7,43.573H251.65H91.65z"/>
			</g>
			<linearGradient id="SVGID_32_" gradientUnits="userSpaceOnUse" x1="232.4287" y1="87.8047" x2="241.4288" y2="206.8043">
				<stop  offset="0.2747" style="stop-color:#363230"/>
				<stop  offset="0.4474" style="stop-color:#302D2A"/>
				<stop  offset="0.757" style="stop-color:#201E1B"/>
				<stop  offset="1" style="stop-color:#0F0E09"/>
			</linearGradient>
			<path fill="url(#SVGID_32_)" d="M411.65,350.43h-320c-7.878,0-13.981-3.082-17.185-8.679c-3.686-6.439-3.016-15.173,1.794-23.364
				L233.678,46.771C238.062,39.3,244.62,35,251.651,35c7.029,0,13.588,4.3,17.988,11.794l155.387,267.572
				c5.366,9.139,6.078,20.305,1.785,27.808C423.718,347.574,418.476,350.43,411.65,350.43L411.65,350.43z"/>
			<linearGradient id="SVGID_33_" gradientUnits="userSpaceOnUse" x1="227.6216" y1="160.3647" x2="245.6216" y2="272.3647">
				<stop  offset="0.011" style="stop-color:#FCBD00"/>
				<stop  offset="0.2586" style="stop-color:#F9B400"/>
				<stop  offset="0.7024" style="stop-color:#F19B00"/>
				<stop  offset="1" style="stop-color:#EB8700"/>
			</linearGradient>
			<path fill="url(#SVGID_33_)" d="M383.812,303.134c5.523,9.512,1.043,17.295-9.957,17.295H129.75c-11,0-15.487-7.787-9.971-17.304
				L241.627,92.878c5.516-9.517,14.549-9.521,20.073-0.009L383.812,303.134z"/>
			<linearGradient id="SVGID_34_" gradientUnits="userSpaceOnUse" x1="234.8638" y1="30" x2="234.8638" y2="237.7134">
				<stop  offset="0" style="stop-color:#FDE479"/>
				<stop  offset="0.1898" style="stop-color:#FCDD6C"/>
				<stop  offset="0.5312" style="stop-color:#FBCC47"/>
				<stop  offset="0.9825" style="stop-color:#F9B000"/>
				<stop  offset="1" style="stop-color:#F9AF00"/>
			</linearGradient>
			<path fill="url(#SVGID_34_)" d="M352.491,179.507L273.95,44.262c-11.164-19.016-33.435-19.016-44.599,0L117.237,237.713
				c2.426-0.946,4.943-1.917,7.543-2.908c-0.033,0.013-0.068,0.025-0.102,0.038L233.678,46.771C238.062,39.3,244.62,35,251.651,35
				c7.029,0,13.588,4.3,17.988,11.794l77.305,133.116c-0.205,0.016-0.41,0.037-0.615,0.053
				C348.386,179.799,350.44,179.644,352.491,179.507z"/>
			<linearGradient id="SVGID_35_" gradientUnits="userSpaceOnUse" x1="227.4473" y1="117.7905" x2="235.4473" y2="165.7909">
				<stop  offset="0" style="stop-color:#FBD312"/>
				<stop  offset="0.0824" style="stop-color:#FBD10D"/>
				<stop  offset="1" style="stop-color:#FBB800"/>
			</linearGradient>
			<path fill="url(#SVGID_35_)" d="M314.339,183.51L261.7,92.869c-5.523-9.512-14.557-9.508-20.073,0.009l-73.217,126.334
				C210.267,205.246,262.002,190.856,314.339,183.51z"/>
			<linearGradient id="SVGID_36_" gradientUnits="userSpaceOnUse" x1="241.6396" y1="76.644" x2="234.6397" y2="233.6437">
				<stop  offset="0.2747" style="stop-color:#3F3A38"/>
				<stop  offset="0.3392" style="stop-color:#34302E"/>
				<stop  offset="0.4266" style="stop-color:#282522"/>
				<stop  offset="0.5236" style="stop-color:#1E1B18"/>
				<stop  offset="0.6339" style="stop-color:#161410"/>
				<stop  offset="0.769" style="stop-color:#110F0B"/>
				<stop  offset="1" style="stop-color:#0F0E09"/>
			</linearGradient>
			<path fill="url(#SVGID_36_)" d="M168.411,219.212l73.217-126.334c5.516-9.517,14.549-9.521,20.073-0.009l52.639,90.641
				l32.605-3.6L269.64,46.794C265.239,39.3,258.681,35,251.651,35c-7.032,0-13.589,4.3-17.974,11.771L124.679,234.843
				L168.411,219.212z"/>
			<linearGradient id="SVGID_37_" gradientUnits="userSpaceOnUse" x1="199.5044" y1="72.6348" x2="302.6006" y2="72.6348">
				<stop  offset="0" style="stop-color:#363230"/>
				<stop  offset="0.467" style="stop-color:#C5C3C6"/>
				<stop  offset="1" style="stop-color:#363230"/>
			</linearGradient>
			<path fill="url(#SVGID_37_)" d="M201.917,107.814l31.716-54.725c4.39-7.479,10.955-11.784,17.995-11.784
				c7.038,0,13.604,4.305,18.009,11.808l31.767,54.701h1.197l-34.268-59.006c-4.235-7.215-10.549-11.354-17.314-11.354
				c-6.77,0-13.083,4.139-17.303,11.33l-34.211,59.029H201.917z"/>
			<linearGradient id="SVGID_38_" gradientUnits="userSpaceOnUse" x1="227.8159" y1="122.2476" x2="264.1597" y2="122.2476">
				<stop  offset="0" style="stop-color:#FBD10D"/>
				<stop  offset="0.0677" style="stop-color:#FDD539"/>
				<stop  offset="0.1826" style="stop-color:#FFDD60"/>
				<stop  offset="0.3025" style="stop-color:#FFE37B"/>
				<stop  offset="0.4283" style="stop-color:#FFE78D"/>
				<stop  offset="0.5635" style="stop-color:#FFE996"/>
				<stop  offset="0.7253" style="stop-color:#FFEA9A"/>
				<stop  offset="0.7705" style="stop-color:#FFE994"/>
				<stop  offset="0.8271" style="stop-color:#FFE585"/>
				<stop  offset="0.8898" style="stop-color:#FFDF6A"/>
				<stop  offset="0.9563" style="stop-color:#FDD640"/>
				<stop  offset="1" style="stop-color:#FBD10D"/>
			</linearGradient>
			<path fill="url(#SVGID_38_)" d="M209.919,155.424l31.715-54.725c5.672-9.785,13.959-9.789,19.64-0.01l31.785,54.734h2.225
				l-34.599-59.578c-5.248-9.036-13.83-9.032-19.071,0.009l-34.523,59.569H209.919z"/>
			<g>
				<path fill="#0F0E09" d="M250.849,251.83c4.382,0,10.515-17.683,12.09-22.853c4.908-14.964,8.938-35.368,8.938-52.237
					c0-20.132-6.133-41.625-21.027-41.625c-14.894,0-21.026,21.493-21.026,41.625c0,16.869,4.03,37.273,8.937,52.237
					C240.335,234.147,246.468,251.83,250.849,251.83z M250.85,267.436c-8.905,0-16.124,7.22-16.124,16.123
					c0,8.904,7.218,16.123,16.124,16.123s16.123-7.219,16.123-16.123C266.973,274.655,259.755,267.436,250.85,267.436z"/>
			</g>
			<radialGradient id="SVGID_39_" cx="243.6665" cy="137.646" r="66.0147" gradientUnits="userSpaceOnUse">
				<stop  offset="0.2747" style="stop-color:#433E3C"/>
				<stop  offset="0.2864" style="stop-color:#413C3A"/>
				<stop  offset="0.364" style="stop-color:#34302E"/>
				<stop  offset="0.4488" style="stop-color:#282522"/>
				<stop  offset="0.542" style="stop-color:#1E1B18"/>
				<stop  offset="0.6481" style="stop-color:#161410"/>
				<stop  offset="0.7779" style="stop-color:#110F0B"/>
				<stop  offset="1" style="stop-color:#0F0E09"/>
			</radialGradient>
			<path fill="url(#SVGID_39_)" d="M250.849,135.115c-14.894,0-21.026,21.493-21.026,41.625c0,7.426,0.782,15.536,2.075,23.565
				c12.725-3.313,25.825-6.422,39.14-9.196c0.532-4.93,0.839-9.781,0.839-14.369C271.876,156.608,265.743,135.115,250.849,135.115z"
				/>
		</g>
	</g>
</g>
</svg>
